<svg width="30" height="40" viewBox="0 0 58 74" fill="none" xmlns="http://www.w3.org/2000/svg">
<path d="M5.22727 9.90909L12.7273 22.0114H12.9545L20.4545 9.90909H24.6023L15.4545 24.4545L24.6023 39H20.4545L12.9545 27.125H12.7273L5.22727 39H1.07955L10.4545 24.4545L1.07955 9.90909H5.22727Z" fill="url(#paint0_linear_4_19)"/>
<path d="M21.5 11.5C24.5 5.50002 32.521 3.25836 38 3.5C46.9841 3.89622 54.4471 9.21393 56 12.5269" stroke="#FF1111" stroke-width="3.6"/>
<path d="M40.5568 43.1818V46.0227H29.25V43.1818H40.5568ZM32.5455 37.9545H35.8977V58.75C35.8977 59.697 36.035 60.4072 36.3097 60.8807C36.5938 61.3447 36.9536 61.6572 37.3892 61.8182C37.8343 61.9697 38.303 62.0455 38.7955 62.0455C39.1648 62.0455 39.4678 62.0265 39.7045 61.9886C39.9413 61.9413 40.1307 61.9034 40.2727 61.875L40.9545 64.8864C40.7273 64.9716 40.41 65.0568 40.0028 65.142C39.5956 65.2367 39.0795 65.2841 38.4545 65.2841C37.5076 65.2841 36.5795 65.0805 35.6705 64.6733C34.7708 64.2661 34.0227 63.6458 33.4261 62.8125C32.839 61.9792 32.5455 60.928 32.5455 59.6591V37.9545Z" fill="url(#paint1_linear_4_19)"/>
<defs>
<linearGradient id="paint0_linear_4_19" x1="23.2424" y1="8.65574" x2="-5.87133" y2="38.5941" gradientUnits="userSpaceOnUse">
<stop stop-color="#FF1111"/>
<stop offset="1" stop-color="#2400FF"/>
</linearGradient>
<linearGradient id="paint1_linear_4_19" x1="39.8421" y1="68.0984" x2="29.6359" y2="44.0742" gradientUnits="userSpaceOnUse">
<stop stop-color="#FF1111"/>
<stop offset="1" stop-color="#E0D3D3"/>
</linearGradient>
</defs>
</svg>
